<?xml version="1.0" encoding="utf-8"?>
<!-- Generator: Adobe Illustrator 22.0.0, SVG Export Plug-In . SVG Version: 6.00 Build 0)  -->
<svg version="1.1" id="Слой_1" xmlns="http://www.w3.org/2000/svg" xmlns:xlink="http://www.w3.org/1999/xlink" x="0px" y="0px"
	 viewBox="0 0 465.6 98.2" style="enable-background:new 0 0 465.6 98.2;" xml:space="preserve">
<style type="text/css">
	.st0{fill:#414141;}
</style>
<g>
	<g>
		<g>
			<path class="st0" d="M121.4,41.7V3.3c0-1.5,0.7-2.3,2.1-2.3h8.7c1.2,0,2,0.8,2.5,2.4l8.1,26.3c0.4,1.2,0.6,2.1,0.7,2.8
				c0.1,0.7,0.3,1.6,0.4,2.6h0.2c0.1-1,0.2-1.9,0.4-2.6c0.1-0.7,0.4-1.7,0.7-2.8l8.1-26.3c0.5-1.6,1.3-2.4,2.5-2.4h8.7
				c1.4,0,2.1,0.7,2.1,2.3v38.4c0,1.5-0.7,2.3-2.1,2.3h-4.6c-1.4,0-2.1-0.7-2.1-2.3V17c0-1.2,0-2.4,0.2-3.6l-0.2,0l-8.6,28.2
				c-0.5,1.6-1.4,2.4-2.6,2.4h-5.1c-1.2,0-2.1-0.8-2.6-2.4l-8.6-28.2H130c0.1,1.2,0.2,2.4,0.2,3.6v24.7c0,1.5-0.7,2.3-2.1,2.3h-4.6
				C122.1,44,121.4,43.2,121.4,41.7z"/>
			<path class="st0" d="M178.8,42l14.7-38.5C194,1.8,195,1,196.2,1h4.2c1.3,0,2.2,0.8,2.8,2.4L217.9,42c0.5,1.3,0,2-1.4,2h-4.8
				c-1.3,0-2.2-0.7-2.8-2.1l-3.1-8.1h-15.2l-3.1,8.1c-0.5,1.4-1.4,2.1-2.8,2.1h-4.8C178.7,44,178.3,43.3,178.8,42z M193.5,26.4h9.6
				l-3.7-9.5c-0.4-1.1-0.7-1.9-0.8-2.4c-0.1-0.5-0.2-1.3-0.3-2.3h-0.1c-0.1,1-0.2,1.8-0.3,2.3c-0.1,0.5-0.4,1.3-0.8,2.4L193.5,26.4z
				"/>
			<path class="st0" d="M230.1,41.7V3.3c0-1.5,0.7-2.3,2.1-2.3h4.5c1.4,0,2.1,0.7,2.1,2.3v15.1h0.9c1.3,0,2.7-0.6,4.1-1.7
				c1.4-1.1,2.7-2.5,3.7-4.2l6.3-9.7c0.8-1.2,1.7-1.8,2.7-1.8h5.3c1.9,0,2.3,0.9,1.1,2.6L255,15.4c-1,1.5-2,2.7-3,3.7
				c-1,1-2.2,1.9-3.6,2.9v0c1.5,0.6,2.9,1.4,4.1,2.5c1.2,1.1,2.6,2.8,4.1,5.1l7.4,11.8c1.1,1.7,0.7,2.6-1.1,2.6h-5.6
				c-1.1,0-2-0.6-2.7-1.8l-5.7-9.7c-1.1-1.8-2.4-3.4-4-4.8c-1.6-1.3-3.2-2-4.6-2h-1.3v16.1c0,1.5-0.7,2.3-2.1,2.3h-4.5
				C230.8,44,230.1,43.2,230.1,41.7z"/>
			<path class="st0" d="M274.4,22.5c0-6.9,1.8-12.4,5.2-16.4C283.1,2,288.2,0,294.8,0c3.8,0,7,0.6,9.6,1.8c2.6,1.2,4.5,2.9,5.6,5.1
				c0.7,1.5,0.6,2.5-0.4,3l-3.6,1.9c-1.3,0.7-2.3,0.3-3.1-1.1c-0.5-0.9-1.5-1.7-2.9-2.5c-1.4-0.7-3.1-1.1-5-1.1
				c-4.2,0-7.1,1.3-8.8,4c-1.7,2.6-2.5,6.5-2.5,11.5s0.8,8.8,2.5,11.5c1.7,2.6,4.6,4,8.8,4c2.3,0,4.2-0.5,5.7-1.5
				c1.6-1,2.6-2,3.2-2.9c1-1.5,2-1.9,3.1-1.2l3.6,2.4c1,0.7,1.1,1.7,0.3,3c-1.2,2-3.1,3.7-6,5.1c-2.8,1.4-6.2,2.1-10.3,2.1
				c-6.5,0-11.5-2-15.1-6.1C276.2,34.9,274.4,29.4,274.4,22.5z"/>
			<path class="st0" d="M325.2,41.7V3.3c0-1.5,0.7-2.3,2.1-2.3h4.5c1.4,0,2.1,0.7,2.1,2.3v23.6c0,1.2,0,2.4-0.1,3.6h0.2l14.7-27.4
				c0.8-1.4,2.1-2.1,3.9-2.1h5.6c1.4,0,2.1,0.7,2.1,2.3v38.4c0,1.5-0.7,2.3-2.1,2.3h-4.6c-1.4,0-2.1-0.7-2.1-2.3V18.1
				c0-1.2,0-2.4,0.1-3.6h-0.2l-14.7,27.4c-0.8,1.4-2.1,2.1-3.9,2.1h-5.6C325.9,44,325.2,43.2,325.2,41.7z"/>
			<path class="st0" d="M376,41.7V3.3c0-1.5,0.7-2.3,2.1-2.3h8.7c1.2,0,2,0.8,2.5,2.4l8.1,26.3c0.4,1.2,0.6,2.1,0.7,2.8
				c0.1,0.7,0.3,1.6,0.4,2.6h0.2c0.1-1,0.2-1.9,0.4-2.6c0.1-0.7,0.4-1.7,0.7-2.8l8.1-26.3c0.5-1.6,1.3-2.4,2.5-2.4h8.7
				c1.4,0,2.1,0.7,2.1,2.3v38.4c0,1.5-0.7,2.3-2.1,2.3h-4.6c-1.4,0-2.1-0.7-2.1-2.3V17c0-1.2,0-2.4,0.1-3.6l-0.2,0l-8.7,28.2
				c-0.5,1.6-1.4,2.4-2.6,2.4H396c-1.2,0-2.1-0.8-2.6-2.4l-8.6-28.2h-0.2c0.1,1.2,0.2,2.4,0.2,3.6v24.7c0,1.5-0.7,2.3-2.1,2.3h-4.5
				C376.7,44,376,43.2,376,41.7z"/>
		</g>
		<g>
			<path class="st0" d="M121.4,69.2V56.4c0-1.5,0.7-2.3,2.1-2.3h4.6c1.4,0,2.1,0.7,2.1,2.3v11.4c0,2.4,0.4,4.1,1.3,5.1
				c0.9,1,2.1,1.5,3.6,1.5c1.4,0,2.8-0.1,4.1-0.4c1.3-0.3,2.8-0.8,4.5-1.6V56.4c0-1.5,0.7-2.3,2.1-2.3h4.6c1.4,0,2.1,0.7,2.1,2.3
				v38.4c0,1.5-0.7,2.3-2.1,2.3h-4.6c-1.4,0-2.1-0.7-2.1-2.3V82.4c0-1.2,0-2.4,0.1-3.6h-0.2c-1.4,0.7-3.2,1.4-5.2,1.8
				c-2,0.5-3.9,0.7-5.6,0.7c-3.5,0-6.3-1.2-8.3-3.7C122.4,75.4,121.4,72.5,121.4,69.2z"/>
			<path class="st0" d="M165.2,56.8c-0.9-1.7-0.4-2.6,1.4-2.6h5.3c1.2,0,2.1,0.7,2.8,2.1l8.9,18.3c0.6,1.2,1,2.3,1.3,3.5
				c0.3,1.2,0.5,2.3,0.7,3.4h0.1c0.2-1.1,0.4-2.3,0.6-3.5c0.2-1.1,0.6-2.3,1-3.4l6.6-18.3c0.5-1.4,1.4-2.1,2.8-2.1h5.1
				c1.6,0,2.1,0.9,1.4,2.6l-12.5,30.5c-1.8,4.4-3.7,7.3-5.6,8.8c-1.9,1.4-4.7,2.1-8.2,2.1c-2.6,0-4.6-0.3-6.2-1
				c-1.2-0.5-1.7-1.3-1.4-2.3l1.1-3.9c0.3-0.9,1-1.1,2.2-0.6c1.2,0.5,2.3,0.7,3.3,0.7c1.2,0,2.2-0.2,3.1-0.5c0.9-0.3,1.6-1.1,2-2.2
				l0.4-1L165.2,56.8z"/>
			<path class="st0" d="M214.2,94.6l6.4-9.6c0.6-0.9,1.5-2,2.9-3.5c1.3-1.5,2.6-2.6,3.9-3.4V78c-4-0.2-7.1-1.4-9.3-3.6
				c-2.2-2.2-3.3-4.7-3.3-7.6c0-4.1,1.4-7.3,4.1-9.4c2.8-2.2,7.3-3.2,13.8-3.2h13.9c1.4,0,2.1,0.7,2.1,2.3v38.4
				c0,1.5-0.7,2.3-2.1,2.3h-4.5c-1.4,0-2.1-0.7-2.1-2.3V80h-1.8c-1.9,0-3.5,0.5-4.7,1.5c-1.2,1-2.4,2.4-3.5,4.2l-6.3,9.7
				c-0.8,1.2-1.7,1.8-2.7,1.8h-5.7C213.5,97.1,213.1,96.3,214.2,94.6z M223.7,66.8c0,2.6,1.1,4.2,3.2,4.9c2.1,0.7,4.6,1,7.4,1h5.7
				V61.5h-6.8c-3,0-5.4,0.4-7,1.2C224.5,63.5,223.7,64.9,223.7,66.8z"/>
			<path class="st0" d="M334.7,94.9V56.4c0-1.5,0.7-2.3,2.1-2.3h4.5c1.4,0,2.1,0.7,2.1,2.3v15.1h0.9c1.3,0,2.7-0.6,4.1-1.7
				c1.4-1.1,2.6-2.5,3.7-4.2l6.3-9.7c0.8-1.2,1.7-1.8,2.7-1.8h5.3c1.9,0,2.3,0.9,1.1,2.6l-8.1,11.8c-1,1.5-2,2.7-2.9,3.7
				c-1,1-2.2,1.9-3.6,2.9v0c1.5,0.6,2.9,1.4,4.1,2.5c1.2,1.1,2.6,2.8,4.1,5.1l7.4,11.8c1.1,1.7,0.7,2.6-1.1,2.6h-5.6
				c-1.1,0-2-0.6-2.7-1.8l-5.7-9.7c-1.1-1.8-2.4-3.4-4-4.8c-1.6-1.3-3.2-2-4.6-2h-1.3v16c0,1.5-0.7,2.3-2.1,2.3h-4.5
				C335.4,97.1,334.7,96.4,334.7,94.9z"/>
			<path class="st0" d="M381.2,94.9V56.4c0-1.5,0.7-2.3,2.1-2.3h4.6c1.4,0,2.1,0.7,2.1,2.3v23.6c0,1.2,0,2.4-0.2,3.6h0.2l14.7-27.4
				c0.8-1.4,2.1-2.1,3.9-2.1h5.6c1.4,0,2.1,0.7,2.1,2.3v38.4c0,1.5-0.7,2.3-2.1,2.3h-4.5c-1.4,0-2.1-0.7-2.1-2.3V71.3
				c0-1.2,0-2.4,0.2-3.6h-0.2L392.8,95c-0.8,1.4-2.1,2.1-3.9,2.1h-5.6C381.9,97.1,381.2,96.4,381.2,94.9z"/>
			<path class="st0" d="M432,94.9V56.4c0-1.5,0.7-2.3,2.1-2.3h4.6c1.4,0,2.1,0.7,2.1,2.3v14.6h16.1V56.4c0-1.5,0.7-2.3,2.1-2.3h4.6
				c1.4,0,2.1,0.7,2.1,2.3v38.4c0,1.5-0.7,2.3-2.1,2.3h-4.6c-1.4,0-2.1-0.7-2.1-2.3V78.5h-16.1v16.4c0,1.5-0.7,2.3-2.1,2.3h-4.6
				C432.7,97.1,432,96.4,432,94.9z"/>
			<path class="st0" d="M273.2,89.7v-9.8V69.2c0-1.5-0.7-2.3-2.1-2.3h-4.6c-1.4,0-2.1,0.8-2.1,2.3v25.7c0,1.5,0.7,2.3,2.1,2.3h6.6
				V89.7z"/>
			<path class="st0" d="M316.9,54.2h-4.6c-1.4,0-2.1,0.7-2.1,2.3v31.5v1.8v7.4h6.7c1.4,0,2.1-0.7,2.1-2.3V56.4
				C319,54.9,318.3,54.2,316.9,54.2z"/>
			<path class="st0" d="M294,60.6h-4.6c-1.4,0-2.1,0.7-2.1,2.3v25.5v1.4v7.4h8.7v-7.4v-11V62.8C296.1,61.3,295.4,60.6,294,60.6z"/>
		</g>
	</g>
	<path class="st0" d="M103,1.2H86.9h-9.9L54,22.5L31.2,1.2h-9.9H5.1c0,0-5.1,0-5.1,5.2h0v18.9v72.8h18.3h3h6.6h3.3h38.6V78.5v-7.4
		V54.4L54,69.1L31.2,47.8V25.3L54,46.6l22.9-21.3h9.9v72.8h21.2V25.3V6.4C108.1,1.2,103,1.2,103,1.2z"/>
</g>
</svg>
